<?xml version="1.0" encoding="UTF-8" standalone="no"?>
<!DOCTYPE svg PUBLIC "-//W3C//DTD SVG 1.1//EN"
 "http://www.w3.org/Graphics/SVG/1.1/DTD/svg11.dtd">
<!-- Generated by graphviz version 2.34.0 (20140315.1118)
 -->
<!-- Title: G Pages: 1 -->
<svg width="748pt" height="1412pt"
 viewBox="0.00 0.00 748.00 1412.00" xmlns="http://www.w3.org/2000/svg" xmlns:xlink="http://www.w3.org/1999/xlink">
<g id="graph0" class="graph" transform="scale(1 1) rotate(0) translate(4 1408)">
<title>G</title>
<polygon fill="white" stroke="white" points="-4,4 -4,-1408 744,-1408 744,4 -4,4"/>
<g id="clust1" class="cluster"><title>cluster_Global</title>
<path fill="none" stroke="gray" d="M205,-244C205,-244 720,-244 720,-244 726,-244 732,-250 732,-256 732,-256 732,-1384 732,-1384 732,-1390 726,-1396 720,-1396 720,-1396 205,-1396 205,-1396 199,-1396 193,-1390 193,-1384 193,-1384 193,-256 193,-256 193,-250 199,-244 205,-244"/>
<text text-anchor="middle" x="462.5" y="-1383.2" font-family="Times,serif" font-size="11.00" fill="gray">Global</text>
</g>
<!-- \\MY_Form_validation -->
<g id="node1" class="node"><title>\\MY_Form_validation</title>
<polygon fill="none" stroke="black" points="724,-504 612,-504 612,-468 724,-468 724,-504"/>
<text text-anchor="middle" x="668" y="-483.2" font-family="Times,serif" font-size="11.00">MY_Form_validation</text>
</g>
<!-- \\CI_Form_validation -->
<g id="node27" class="node"><title>\\CI_Form_validation</title>
<ellipse fill="none" stroke="black" cx="455" cy="-218" rx="85.2851" ry="18"/>
<text text-anchor="middle" x="455" y="-214.3" font-family="Times,serif" font-size="14.00" fill="gray">\CI_Form_validation</text>
</g>
<!-- \\MY_Form_validation&#45;&gt;\\CI_Form_validation -->
<g id="edge1" class="edge"><title>\\MY_Form_validation&#45;&gt;\\CI_Form_validation</title>
<path fill="none" stroke="black" d="M621.838,-467.818C618.219,-465.219 614.863,-462.29 612,-459 544.746,-381.704 614.642,-310.188 540,-240 537.584,-237.728 534.963,-235.684 532.189,-233.846"/>
<polygon fill="none" stroke="black" points="533.896,-230.79 523.467,-228.925 530.457,-236.887 533.896,-230.79"/>
</g>
<!-- \\Sell_model -->
<g id="node2" class="node"><title>\\Sell_model</title>
<polygon fill="none" stroke="black" points="701,-1260 635,-1260 635,-1224 701,-1224 701,-1260"/>
<text text-anchor="middle" x="668" y="-1239.2" font-family="Times,serif" font-size="11.00">Sell_model</text>
</g>
<!-- \\Exchange_base -->
<g id="node6" class="node"><title>\\Exchange_base</title>
<polygon fill="none" stroke="black" points="498,-1260 412,-1260 412,-1224 498,-1224 498,-1260"/>
<text text-anchor="middle" x="455" y="-1239.2" font-family="Times,serif" font-size="11.00">Exchange_base</text>
</g>
<!-- \\Sell_model&#45;&gt;\\Exchange_base -->
<g id="edge2" class="edge"><title>\\Sell_model&#45;&gt;\\Exchange_base</title>
<path fill="none" stroke="black" d="M634.954,-1242C601.334,-1242 547.959,-1242 508.238,-1242"/>
<polygon fill="none" stroke="black" points="508.198,-1238.5 498.198,-1242 508.198,-1245.5 508.198,-1238.5"/>
</g>
<!-- \\MY_Model -->
<g id="node3" class="node"><title>\\MY_Model</title>
<polygon fill="none" stroke="black" points="269,-1314 201,-1314 201,-1278 269,-1278 269,-1314"/>
<text text-anchor="middle" x="235" y="-1293.2" font-family="Times,serif" font-size="11.00">MY_Model</text>
</g>
<!-- \\CI_Model -->
<g id="node28" class="node"><title>\\CI_Model</title>
<ellipse fill="none" stroke="black" cx="50" cy="-1296" rx="50.0912" ry="18"/>
<text text-anchor="middle" x="50" y="-1292.3" font-family="Times,serif" font-size="14.00" fill="gray">\CI_Model</text>
</g>
<!-- \\MY_Model&#45;&gt;\\CI_Model -->
<g id="edge3" class="edge"><title>\\MY_Model&#45;&gt;\\CI_Model</title>
<path fill="none" stroke="black" d="M200.86,-1296C175.707,-1296 140.455,-1296 110.461,-1296"/>
<polygon fill="none" stroke="black" points="110.096,-1292.5 100.096,-1296 110.096,-1299.5 110.096,-1292.5"/>
</g>
<!-- \\User_base -->
<g id="node4" class="node"><title>\\User_base</title>
<polygon fill="none" stroke="black" points="487,-1314 423,-1314 423,-1278 487,-1278 487,-1314"/>
<text text-anchor="middle" x="455" y="-1293.2" font-family="Times,serif" font-size="11.00">User_base</text>
</g>
<!-- \\User_base&#45;&gt;\\MY_Model -->
<g id="edge4" class="edge"><title>\\User_base&#45;&gt;\\MY_Model</title>
<path fill="none" stroke="black" d="M422.766,-1296C385.133,-1296 321.696,-1296 279.341,-1296"/>
<polygon fill="none" stroke="black" points="279.321,-1292.5 269.321,-1296 279.321,-1299.5 279.321,-1292.5"/>
</g>
<!-- \\Book_base -->
<g id="node5" class="node"><title>\\Book_base</title>
<polygon fill="none" stroke="black" points="487.5,-1368 422.5,-1368 422.5,-1332 487.5,-1332 487.5,-1368"/>
<text text-anchor="middle" x="455" y="-1347.2" font-family="Times,serif" font-size="11.00">Book_base</text>
</g>
<!-- \\Book_base&#45;&gt;\\MY_Model -->
<g id="edge5" class="edge"><title>\\Book_base&#45;&gt;\\MY_Model</title>
<path fill="none" stroke="black" d="M422.301,-1342.15C384.474,-1332.78 321.059,-1317.07 278.878,-1306.62"/>
<polygon fill="none" stroke="black" points="279.715,-1303.22 269.167,-1304.22 278.032,-1310.02 279.715,-1303.22"/>
</g>
<!-- \\Exchange_base&#45;&gt;\\MY_Model -->
<g id="edge6" class="edge"><title>\\Exchange_base&#45;&gt;\\MY_Model</title>
<path fill="none" stroke="black" d="M411.967,-1252.41C373.692,-1261.89 317.429,-1275.83 278.888,-1285.38"/>
<polygon fill="none" stroke="black" points="277.871,-1282.02 269.006,-1287.82 279.554,-1288.82 277.871,-1282.02"/>
</g>
<!-- \\Reset -->
<g id="node7" class="node"><title>\\Reset</title>
<polygon fill="none" stroke="black" points="695,-666 641,-666 641,-630 695,-630 695,-666"/>
<text text-anchor="middle" x="668" y="-645.2" font-family="Times,serif" font-size="11.00">Reset</text>
</g>
<!-- \\MY_Controller -->
<g id="node8" class="node"><title>\\MY_Controller</title>
<polygon fill="none" stroke="black" points="497.5,-801 412.5,-801 412.5,-765 497.5,-765 497.5,-801"/>
<text text-anchor="middle" x="455" y="-780.2" font-family="Times,serif" font-size="11.00">MY_Controller</text>
</g>
<!-- \\Reset&#45;&gt;\\MY_Controller -->
<g id="edge7" class="edge"><title>\\Reset&#45;&gt;\\MY_Controller</title>
<path fill="none" stroke="black" d="M640.839,-659.859C631.572,-664.316 621.173,-669.614 612,-675 567.471,-701.147 518.981,-735.769 488.078,-758.682"/>
<polygon fill="none" stroke="black" points="485.773,-756.035 479.846,-764.817 489.956,-761.648 485.773,-756.035"/>
</g>
<!-- \\CI_Controller -->
<g id="node29" class="node"><title>\\CI_Controller</title>
<ellipse fill="none" stroke="black" cx="235" cy="-141" rx="62.2891" ry="18"/>
<text text-anchor="middle" x="235" y="-137.3" font-family="Times,serif" font-size="14.00" fill="gray">\CI_Controller</text>
</g>
<!-- \\MY_Controller&#45;&gt;\\CI_Controller -->
<g id="edge8" class="edge"><title>\\MY_Controller&#45;&gt;\\CI_Controller</title>
<path fill="none" stroke="black" d="M450.65,-764.544C437.463,-694.087 385.517,-436.168 298,-240 286.321,-213.821 268.637,-186.369 255.14,-167.031"/>
<polygon fill="none" stroke="black" points="257.909,-164.885 249.27,-158.751 252.198,-168.933 257.909,-164.885"/>
</g>
<!-- \\User_model -->
<g id="node9" class="node"><title>\\User_model</title>
<polygon fill="none" stroke="black" points="703.5,-1314 632.5,-1314 632.5,-1278 703.5,-1278 703.5,-1314"/>
<text text-anchor="middle" x="668" y="-1293.2" font-family="Times,serif" font-size="11.00">User_model</text>
</g>
<!-- \\User_model&#45;&gt;\\User_base -->
<g id="edge9" class="edge"><title>\\User_model&#45;&gt;\\User_base</title>
<path fill="none" stroke="black" d="M632.158,-1296C595.088,-1296 536.478,-1296 497.159,-1296"/>
<polygon fill="none" stroke="black" points="497.109,-1292.5 487.109,-1296 497.109,-1299.5 497.109,-1292.5"/>
</g>
<!-- \\Google_books -->
<g id="node10" class="node"><title>\\Google_books</title>
<polygon fill="none" stroke="black" points="708,-1152 628,-1152 628,-1116 708,-1116 708,-1152"/>
<text text-anchor="middle" x="668" y="-1131.2" font-family="Times,serif" font-size="11.00">Google_books</text>
</g>
<!-- \\Test -->
<g id="node11" class="node"><title>\\Test</title>
<polygon fill="none" stroke="black" points="695,-558 641,-558 641,-522 695,-522 695,-558"/>
<text text-anchor="middle" x="668" y="-537.2" font-family="Times,serif" font-size="11.00">Test</text>
</g>
<!-- \\Test&#45;&gt;\\MY_Controller -->
<g id="edge10" class="edge"><title>\\Test&#45;&gt;\\MY_Controller</title>
<path fill="none" stroke="black" d="M640.799,-549.708C631.118,-554.073 620.455,-559.866 612,-567 546.288,-622.441 493.764,-711.235 469.915,-755.728"/>
<polygon fill="none" stroke="black" points="466.712,-754.299 465.135,-764.776 472.901,-757.569 466.712,-754.299"/>
</g>
<!-- \\Login -->
<g id="node12" class="node"><title>\\Login</title>
<polygon fill="none" stroke="black" points="695,-1098 641,-1098 641,-1062 695,-1062 695,-1098"/>
<text text-anchor="middle" x="668" y="-1077.2" font-family="Times,serif" font-size="11.00">Login</text>
</g>
<!-- \\Login&#45;&gt;\\MY_Controller -->
<g id="edge11" class="edge"><title>\\Login&#45;&gt;\\MY_Controller</title>
<path fill="none" stroke="black" d="M640.964,-1070.98C631.083,-1066.65 620.238,-1060.7 612,-1053 535.457,-981.462 485.49,-863.784 465.661,-810.609"/>
<polygon fill="none" stroke="black" points="468.927,-809.349 462.204,-801.161 462.354,-811.755 468.927,-809.349"/>
</g>
<!-- \\MY_Loader -->
<g id="node13" class="node"><title>\\MY_Loader</title>
<polygon fill="none" stroke="black" points="703.5,-450 632.5,-450 632.5,-414 703.5,-414 703.5,-450"/>
<text text-anchor="middle" x="668" y="-429.2" font-family="Times,serif" font-size="11.00">MY_Loader</text>
</g>
<!-- \\CI_Loader -->
<g id="node30" class="node"><title>\\CI_Loader</title>
<ellipse fill="none" stroke="black" cx="455" cy="-164" rx="51.1914" ry="18"/>
<text text-anchor="middle" x="455" y="-160.3" font-family="Times,serif" font-size="14.00" fill="gray">\CI_Loader</text>
</g>
<!-- \\MY_Loader&#45;&gt;\\CI_Loader -->
<g id="edge12" class="edge"><title>\\MY_Loader&#45;&gt;\\CI_Loader</title>
<path fill="none" stroke="black" d="M632.422,-420.191C624.895,-416.311 617.538,-411.32 612,-405 545.868,-329.523 611.437,-261.476 540,-191 532.397,-183.5 522.706,-178.082 512.626,-174.169"/>
<polygon fill="none" stroke="black" points="513.494,-170.767 502.9,-170.86 511.239,-177.394 513.494,-170.767"/>
</g>
<!-- \\Admin -->
<g id="node14" class="node"><title>\\Admin</title>
<polygon fill="none" stroke="black" points="695,-1044 641,-1044 641,-1008 695,-1008 695,-1044"/>
<text text-anchor="middle" x="668" y="-1023.2" font-family="Times,serif" font-size="11.00">Admin</text>
</g>
<!-- \\Admin&#45;&gt;\\MY_Controller -->
<g id="edge13" class="edge"><title>\\Admin&#45;&gt;\\MY_Controller</title>
<path fill="none" stroke="black" d="M640.799,-1016.29C631.118,-1011.93 620.455,-1006.13 612,-999 546.288,-943.559 493.764,-854.765 469.915,-810.272"/>
<polygon fill="none" stroke="black" points="472.901,-808.431 465.135,-801.224 466.712,-811.701 472.901,-808.431"/>
</g>
<!-- \\Custom_exception -->
<g id="node15" class="node"><title>\\Custom_exception</title>
<polygon fill="none" stroke="black" points="717,-396 619,-396 619,-360 717,-360 717,-396"/>
<text text-anchor="middle" x="668" y="-375.2" font-family="Times,serif" font-size="11.00">Custom_exception</text>
</g>
<!-- \\Exception -->
<g id="node31" class="node"><title>\\Exception</title>
<ellipse fill="none" stroke="black" cx="455" cy="-110" rx="48.9926" ry="18"/>
<text text-anchor="middle" x="455" y="-106.3" font-family="Times,serif" font-size="14.00" fill="gray">\Exception</text>
</g>
<!-- \\Custom_exception&#45;&gt;\\Exception -->
<g id="edge14" class="edge"><title>\\Custom_exception&#45;&gt;\\Exception</title>
<path fill="none" stroke="black" d="M622.128,-359.986C618.403,-357.345 614.944,-354.36 612,-351 545.868,-275.523 611.437,-207.476 540,-137 531.985,-129.093 521.648,-123.501 510.983,-119.546"/>
<polygon fill="none" stroke="black" points="511.746,-116.113 501.154,-116.354 509.584,-122.771 511.746,-116.113"/>
</g>
<!-- \\Request -->
<g id="node16" class="node"><title>\\Request</title>
<polygon fill="none" stroke="black" points="695,-990 641,-990 641,-954 695,-954 695,-990"/>
<text text-anchor="middle" x="668" y="-969.2" font-family="Times,serif" font-size="11.00">Request</text>
</g>
<!-- \\Request&#45;&gt;\\MY_Controller -->
<g id="edge15" class="edge"><title>\\Request&#45;&gt;\\MY_Controller</title>
<path fill="none" stroke="black" d="M640.752,-961.386C631.277,-956.98 620.765,-951.395 612,-945 556.751,-904.691 504.076,-843.704 476.317,-809.204"/>
<polygon fill="none" stroke="black" points="478.777,-806.675 469.81,-801.032 473.301,-811.035 478.777,-806.675"/>
</g>
<!-- \\User -->
<g id="node17" class="node"><title>\\User</title>
<polygon fill="none" stroke="black" points="695,-936 641,-936 641,-900 695,-900 695,-936"/>
<text text-anchor="middle" x="668" y="-915.2" font-family="Times,serif" font-size="11.00">User</text>
</g>
<!-- \\User&#45;&gt;\\MY_Controller -->
<g id="edge16" class="edge"><title>\\User&#45;&gt;\\MY_Controller</title>
<path fill="none" stroke="black" d="M640.839,-906.141C631.572,-901.684 621.173,-896.386 612,-891 567.471,-864.853 518.981,-830.231 488.078,-807.318"/>
<polygon fill="none" stroke="black" points="489.956,-804.352 479.846,-801.183 485.773,-809.965 489.956,-804.352"/>
</g>
<!-- \\Activation -->
<g id="node18" class="node"><title>\\Activation</title>
<polygon fill="none" stroke="black" points="699.5,-882 636.5,-882 636.5,-846 699.5,-846 699.5,-882"/>
<text text-anchor="middle" x="668" y="-861.2" font-family="Times,serif" font-size="11.00">Activation</text>
</g>
<!-- \\Activation&#45;&gt;\\MY_Controller -->
<g id="edge17" class="edge"><title>\\Activation&#45;&gt;\\MY_Controller</title>
<path fill="none" stroke="black" d="M636.319,-852.222C602.458,-839.223 547.412,-818.092 507.034,-802.591"/>
<polygon fill="none" stroke="black" points="508.214,-799.295 497.624,-798.979 505.705,-805.83 508.214,-799.295"/>
</g>
<!-- \\Signup -->
<g id="node19" class="node"><title>\\Signup</title>
<polygon fill="none" stroke="black" points="695,-828 641,-828 641,-792 695,-792 695,-828"/>
<text text-anchor="middle" x="668" y="-807.2" font-family="Times,serif" font-size="11.00">Signup</text>
</g>
<!-- \\Signup&#45;&gt;\\MY_Controller -->
<g id="edge18" class="edge"><title>\\Signup&#45;&gt;\\MY_Controller</title>
<path fill="none" stroke="black" d="M640.703,-806.635C607.534,-802.391 549.751,-794.997 507.628,-789.606"/>
<polygon fill="none" stroke="black" points="507.913,-786.114 497.55,-788.317 507.025,-793.058 507.913,-786.114"/>
</g>
<!-- \\Request_model -->
<g id="node20" class="node"><title>\\Request_model</title>
<polygon fill="none" stroke="black" points="710.5,-1206 625.5,-1206 625.5,-1170 710.5,-1170 710.5,-1206"/>
<text text-anchor="middle" x="668" y="-1185.2" font-family="Times,serif" font-size="11.00">Request_model</text>
</g>
<!-- \\Request_model&#45;&gt;\\Exchange_base -->
<g id="edge19" class="edge"><title>\\Request_model&#45;&gt;\\Exchange_base</title>
<path fill="none" stroke="black" d="M625.313,-1198.67C591.72,-1207.27 544.301,-1219.4 508.188,-1228.64"/>
<polygon fill="none" stroke="black" points="507.142,-1225.3 498.322,-1231.17 508.878,-1232.08 507.142,-1225.3"/>
</g>
<!-- \\Welcome -->
<g id="node21" class="node"><title>\\Welcome</title>
<polygon fill="none" stroke="black" points="697.5,-774 638.5,-774 638.5,-738 697.5,-738 697.5,-774"/>
<text text-anchor="middle" x="668" y="-753.2" font-family="Times,serif" font-size="11.00">Welcome</text>
</g>
<!-- \\Welcome&#45;&gt;\\MY_Controller -->
<g id="edge20" class="edge"><title>\\Welcome&#45;&gt;\\MY_Controller</title>
<path fill="none" stroke="black" d="M638.104,-759.698C604.6,-763.985 548.734,-771.134 507.697,-776.385"/>
<polygon fill="none" stroke="black" points="507.081,-772.935 497.606,-777.676 507.97,-779.878 507.081,-772.935"/>
</g>
<!-- \\Book -->
<g id="node22" class="node"><title>\\Book</title>
<polygon fill="none" stroke="black" points="695,-720 641,-720 641,-684 695,-684 695,-720"/>
<text text-anchor="middle" x="668" y="-699.2" font-family="Times,serif" font-size="11.00">Book</text>
</g>
<!-- \\Book&#45;&gt;\\MY_Controller -->
<g id="edge21" class="edge"><title>\\Book&#45;&gt;\\MY_Controller</title>
<path fill="none" stroke="black" d="M640.703,-712.095C607.394,-724.882 549.262,-747.198 507.094,-763.386"/>
<polygon fill="none" stroke="black" points="505.631,-760.198 497.55,-767.05 508.14,-766.733 505.631,-760.198"/>
</g>
<!-- \\Book_model -->
<g id="node23" class="node"><title>\\Book_model</title>
<polygon fill="none" stroke="black" points="704,-1368 632,-1368 632,-1332 704,-1332 704,-1368"/>
<text text-anchor="middle" x="668" y="-1347.2" font-family="Times,serif" font-size="11.00">Book_model</text>
</g>
<!-- \\Book_model&#45;&gt;\\Book_base -->
<g id="edge22" class="edge"><title>\\Book_model&#45;&gt;\\Book_base</title>
<path fill="none" stroke="black" d="M631.683,-1350C594.744,-1350 536.797,-1350 497.65,-1350"/>
<polygon fill="none" stroke="black" points="497.634,-1346.5 487.634,-1350 497.634,-1353.5 497.634,-1346.5"/>
</g>
<!-- \\Sell -->
<g id="node24" class="node"><title>\\Sell</title>
<polygon fill="none" stroke="black" points="695,-612 641,-612 641,-576 695,-576 695,-612"/>
<text text-anchor="middle" x="668" y="-591.2" font-family="Times,serif" font-size="11.00">Sell</text>
</g>
<!-- \\Sell&#45;&gt;\\MY_Controller -->
<g id="edge23" class="edge"><title>\\Sell&#45;&gt;\\MY_Controller</title>
<path fill="none" stroke="black" d="M640.752,-604.614C631.277,-609.02 620.765,-614.605 612,-621 556.751,-661.309 504.076,-722.296 476.317,-756.796"/>
<polygon fill="none" stroke="black" points="473.301,-754.965 469.81,-764.968 478.777,-759.325 473.301,-754.965"/>
</g>
<!-- \\Migration -->
<g id="node25" class="node"><title>\\Migration</title>
<polygon fill="none" stroke="black" points="698,-342 638,-342 638,-306 698,-306 698,-342"/>
<text text-anchor="middle" x="668" y="-321.2" font-family="Times,serif" font-size="11.00">Migration</text>
</g>
<!-- \\Migration&#45;&gt;\\CI_Controller -->
<g id="edge24" class="edge"><title>\\Migration&#45;&gt;\\CI_Controller</title>
<path fill="none" stroke="black" d="M637.86,-314.801C628.54,-310.635 618.87,-304.841 612,-297 545.868,-221.523 621.49,-141.562 540,-83 457.205,-23.5006 330.122,-84.0763 269.898,-119.408"/>
<polygon fill="none" stroke="black" points="267.953,-116.494 261.167,-124.631 271.546,-122.501 267.953,-116.494"/>
</g>
<!-- \\Migration_Db -->
<g id="node26" class="node"><title>\\Migration_Db</title>
<polygon fill="none" stroke="black" points="707.5,-288 628.5,-288 628.5,-252 707.5,-252 707.5,-288"/>
<text text-anchor="middle" x="668" y="-267.2" font-family="Times,serif" font-size="11.00">Migration_Db</text>
</g>
<!-- \\CI_Migration -->
<g id="node32" class="node"><title>\\CI_Migration</title>
<ellipse fill="none" stroke="black" cx="455" cy="-18" rx="61.99" ry="18"/>
<text text-anchor="middle" x="455" y="-14.3" font-family="Times,serif" font-size="14.00" fill="gray">\CI_Migration</text>
</g>
<!-- \\Migration_Db&#45;&gt;\\CI_Migration -->
<g id="edge25" class="edge"><title>\\Migration_Db&#45;&gt;\\CI_Migration</title>
<path fill="none" stroke="black" d="M661.277,-251.86C647.286,-210.325 607.477,-107.486 540,-50 531.988,-43.1743 522.367,-37.724 512.541,-33.3983"/>
<polygon fill="none" stroke="black" points="513.687,-30.0863 503.104,-29.5872 511.066,-36.577 513.687,-30.0863"/>
</g>
</g>
</svg>
